<?xml version="1.0" encoding="UTF-8" standalone="no"?>
<svg
   xmlns:dc="http://purl.org/dc/elements/1.1/"
   xmlns:cc="http://creativecommons.org/ns#"
   xmlns:rdf="http://www.w3.org/1999/02/22-rdf-syntax-ns#"
   xmlns:svg="http://www.w3.org/2000/svg"
   xmlns="http://www.w3.org/2000/svg"
   xmlns:sodipodi="http://sodipodi.sourceforge.net/DTD/sodipodi-0.dtd"
   xmlns:inkscape="http://www.inkscape.org/namespaces/inkscape"
   width="1000"
   height="278.47797"
   viewBox="0 0 1000 278.47797"
   version="1.1"
   id="svg4"
   sodipodi:docname="HOOQ_logo.svg"
   inkscape:version="0.92.3 (2405546, 2018-03-11)">
  <metadata
     id="metadata10">
    <rdf:RDF>
      <cc:Work
         rdf:about="">
        <dc:format>image/svg+xml</dc:format>
        <dc:type
           rdf:resource="http://purl.org/dc/dcmitype/StillImage" />
      </cc:Work>
    </rdf:RDF>
  </metadata>
  <defs
     id="defs8" />
  <sodipodi:namedview
     pagecolor="#ffffff"
     bordercolor="#666666"
     borderopacity="1"
     objecttolerance="10"
     gridtolerance="10"
     guidetolerance="10"
     inkscape:pageopacity="0"
     inkscape:pageshadow="2"
     inkscape:window-width="1366"
     inkscape:window-height="705"
     id="namedview6"
     showgrid="false"
     inkscape:zoom="4.1529412"
     inkscape:cx="13.002833"
     inkscape:cy="11.648"
     inkscape:window-x="-8"
     inkscape:window-y="-8"
     inkscape:window-maximized="1"
     inkscape:current-layer="svg4" />
  <path
     d="m 591.69059,0.16496 c -52.23156,0 -92.64533,26.18058 -118.41353,80.33268 l -39.32979,82.67738 c -15.3643,32.30745 -36.39595,48.67326 -64.80342,48.67326 -38.02193,0 -68.82123,-32.8141 -68.82123,-72.96865 0,-40.14278 30.7993,-72.95687 68.82123,-72.95687 28.40747,0 49.43912,16.35402 64.80342,48.66148 l 2.7571,5.80874 33.15578,-69.68135 C 444.70464,16.71929 410.66517,0.16496 369.14385,0.16496 c -72.39131,0 -131.10321,62.24663 -131.10321,138.71467 0,76.46803 58.7119,138.71467 131.10321,138.71467 52.23156,0 92.63355,-26.18059 118.41353,-80.33268 l 39.32978,-82.67738 c 15.36431,-32.30746 36.39596,-48.66148 64.80343,-48.66148 38.01015,0 68.82123,32.81409 68.82123,72.95687 0,40.15455 -30.81108,72.96865 -68.82123,72.96865 -28.40747,0 -49.43912,-16.36581 -64.80343,-48.66148 l -2.73352,-5.74983 -33.14401,69.66957 c 25.15551,33.95699 59.1832,50.48776 100.68096,50.48776 72.40309,0 131.09143,-62.24664 131.09143,-138.71467 0,-76.46804 -58.68834,-138.71467 -131.09143,-138.71467 M 173.96773,0.58913 c -7.59967,0 -11.42897,4.12385 -11.42897,12.23017 v 88.98099 H 61.445426 V 12.8193 C 61.445426,4.7012 57.60435,0.58913 50.016459,0.58913 27.205655,0.58913 0,8.48336 0,45.98687 V 232.2319 c 0,37.50351 27.205655,45.39774 50.016459,45.39774 7.587891,0 11.428967,-4.10029 11.428967,-12.23017 V 172.2475 H 162.53876 v 93.15197 c 0,8.12988 3.8293,12.23017 11.42897,12.23017 22.8108,0 50.01646,-7.89423 50.01646,-45.39774 V 45.98687 c 0,-37.50351 -27.20566,-45.39774 -50.01646,-45.39774 m 760.59187,163.95265 -5.05467,-6.86916 c -21.97425,-29.88027 -47.17689,-18.36882 -65.3572,-3.46404 -6.05617,4.98398 -6.71599,10.76915 -1.95588,17.21415 l 28.36033,38.55214 c 0,0 -0.0353,0 -0.0589,0.0236 l 10.52172,14.08002 -18.7223,-11.81779 c -4.58337,1.00151 -9.28456,1.60241 -14.12714,1.60241 -39.02345,0 -70.67108,-33.40322 -70.67108,-74.62997 0,-41.21498 31.64763,-74.62998 70.67108,-74.62998 39.01166,0 70.65929,33.415 70.65929,74.62998 0,8.90753 -1.55528,17.41444 -4.26524,25.30868 M 868.16555,0.01179 c -72.81548,0 -131.82195,62.32911 -131.82195,139.22131 0,76.90399 59.01825,139.24488 131.82195,139.24488 22.58693,0 43.83067,-6.00905 62.41158,-16.58968 24.27183,22.85794 45.99865,15.75313 52.39651,12.80752 4.14742,-2.26223 8.08276,-5.00754 11.71175,-7.87067 6.06791,-4.8308 6.81021,-10.56885 2.22688,-17.06098 l -21.51474,-29.57392 a 143.95786,143.95786 0 0 0 24.60174,-80.94537 C 999.99927,62.31733 940.94568,0 868.16555,0"
     id="path2"
     inkscape:connector-curvature="0"
     style="fill:#4f1556;fill-rule:evenodd;stroke-width:11.78244019" />
</svg>
